<?xml version="1.0" encoding="utf-8"?>
<!-- Generator: Adobe Illustrator 26.0.3, SVG Export Plug-In . SVG Version: 6.00 Build 0)  -->
<svg version="1.1" id="Layer_1" xmlns="http://www.w3.org/2000/svg" xmlns:xlink="http://www.w3.org/1999/xlink" x="0px" y="0px"
	 viewBox="0 0 23.2 26" style="enable-background:new 0 0 23.2 26;" xml:space="preserve">
<g>
	<g>
		<path d="M11.6,22.9c0.8,0,1.4-0.6,1.4-1.2h1.1c0-1.4-1.1-2.5-2.5-2.5c-1.4,0-2.5,1.1-2.5,2.5h1.1C10.2,22.3,10.8,22.9,11.6,22.9z
			 M11.6,20.4c0.8,0,1.4,0.5,1.4,1.2c-0.4-0.2-0.9-0.3-1.4-0.3c-0.5,0-1,0.1-1.4,0.3C10.3,20.9,10.9,20.4,11.6,20.4z"/>
		<g>
			<path d="M4.6,2.7c2.3-0.7,4.7-1.1,7-1.1c2.4,0,4.7,0.4,7.1,1.1l-0.1-0.6c0,0,0.2-1.1-3.1-1.7C13.3-0.1,11.6,0,11.6,0
				S9.9-0.1,7.7,0.3C4.5,0.9,4.6,2.1,4.6,2.1L4.6,2.7z"/>
			<path d="M23,15.6l0-0.2l0,0c0,0,0-0.1,0-0.1l0-0.4h0c-0.2-2.8-0.8-6.6-1.1-9.6C18.5,3.8,15.1,3,11.6,3S4.8,3.8,1.4,5.4
				c-0.3,3-0.9,6.8-1.1,9.6h0l0,0.4c0,0,0,0.1,0,0.1l0,0l0,0.2c0,0.2-1.2-0.3,1.8,1.3c0-0.4,0-0.7,0-1.1c-1-0.6-0.7,0-0.9-0.3l0-0.5
				c3.3-1.2,6.9-1.7,10.4-1.7s7,0.5,10.4,1.7l0,0.5c-0.2,0.3,0.1-0.3-0.9,0.3c0,0.4,0.1,0.7,0.1,1.1C24.2,15.3,23,15.8,23,15.6z"/>
		</g>
	</g>
	<path d="M19.5,16.9c-0.5-0.3-2-1.3-7.9-1.3c-5.4,0-7.5,1.3-7.9,1.5c-0.1,0.6,0,1.2,0,1.8c0.8,4,4.2,7.1,7.8,7.1s7.1-3.1,7.8-7.1
		C19.6,18.3,19.6,17.6,19.5,16.9z M11.6,25.1c-1.9,0-3.5-1.6-3.5-3.5s1.6-3.5,3.5-3.5s3.5,1.6,3.5,3.5S13.6,25.1,11.6,25.1z"/>
</g>
</svg>
