<?xml version="1.0" encoding="utf-8"?>
<!-- Generator: Adobe Illustrator 26.3.1, SVG Export Plug-In . SVG Version: 6.00 Build 0)  -->
<svg version="1.1" id="Layer_1" xmlns="http://www.w3.org/2000/svg" xmlns:xlink="http://www.w3.org/1999/xlink" x="0px" y="0px"
	 viewBox="0 0 36.8 30.6" style="enable-background:new 0 0 36.8 30.6;" xml:space="preserve">
<style type="text/css">
	.st0{display:none;}
	.st1{display:inline;}
	.st2{display:inline;fill:none;stroke:#000000;stroke-miterlimit:10;}
	.st3{fill:none;stroke:#000000;stroke-miterlimit:10;}
	.st4{fill:none;stroke:#000000;stroke-miterlimit:10;stroke-dasharray:0.9556,0.9556;}
	.st5{display:inline;fill:#383838;}
	.st6{display:inline;opacity:0.75;enable-background:new    ;}
	.st7{display:inline;opacity:0.5;enable-background:new    ;}
	.st8{display:inline;opacity:0.25;enable-background:new    ;}
	.st9{fill:none;stroke:#383838;stroke-width:0.5;stroke-miterlimit:10;}
	.st10{fill:none;stroke:#000000;stroke-miterlimit:10;stroke-dasharray:1.0262,1.0262;}
	.st11{fill:none;stroke:#000000;stroke-miterlimit:10;stroke-dasharray:0.9318,0.9318;}
	.st12{fill:none;stroke:#000000;stroke-miterlimit:10;stroke-dasharray:1.1337,1.1337;}
	.st13{display:inline;fill:none;stroke:#000000;stroke-width:0.5;stroke-miterlimit:10;}
</style>
<g class="st0">
	<path class="st1" d="M376-14h-14.1c-0.6,0-1-0.5-1-1v-0.3c0-0.6,0.5-1,1-1H376c0.6,0,1,0.5,1,1v0.3C377-14.5,376.6-14,376-14z"/>
	<path class="st1" d="M376-7.5h-14.1c-0.6,0-1-0.5-1-1v-0.3c0-0.6,0.5-1,1-1H376c0.6,0,1,0.5,1,1v0.3C377-7.9,376.6-7.5,376-7.5z"/>
	<path class="st1" d="M376-0.9h-14.1c-0.6,0-1-0.5-1-1v-0.3c0-0.6,0.5-1,1-1H376c0.6,0,1,0.5,1,1v0.3C377-1.4,376.6-0.9,376-0.9z"/>
	<circle class="st1" cx="356.2" cy="-15.2" r="1.7"/>
	<circle class="st1" cx="356.2" cy="-8.6" r="1.7"/>
	<circle class="st1" cx="356.2" cy="-2.1" r="1.7"/>
</g>
<g class="st0">
	<g class="st1">
		<path d="M-42.4-15.4l-4.8,4.3c0.4,0.1,0.9,0.3,1.3,0.5l3.7-3.3C-42.4-14.5-42.4-15-42.4-15.4z"/>
		<path d="M-42-12.7l-2.8,2.6c0.4,0.2,0.7,0.4,1.1,0.7l2.3-2C-41.7-11.9-41.8-12.3-42-12.7z"/>
		<path d="M-41.7-18.4l-0.4-0.5l-7.9,7.2c0.1,0,0.2,0.1,0.3,0.1c0.4,0.1,0.8,0.2,1.1,0.2l6.3-5.7C-42.2-17.6-42-18-41.7-18.4z"/>
		<path d="M-40.9-10.3l-1.9,1.6c0.3,0.3,0.6,0.6,0.9,0.8l1.5-1.3C-40.6-9.5-40.7-9.9-40.9-10.3z"/>
		<path d="M-40.1-6.8c0,0,0-0.5,0-1.1l-1,0.9c0.1,0.1,0.2,0.3,0.3,0.4c0.1,0.2,0.3,0.4,0.4,0.7l0.3-0.3L-40.1-6.8z"/>
		<path d="M-35.3-7.9C-35.3-7.9-35.4-7.9-35.3-7.9c-0.2,1.2-0.7,4.8-4.4,7.4C-39.7-0.5-33.3-2.1-35.3-7.9z"/>
		<path d="M-38.2,0.4c0,0,6.7-1.3,4.8-7.5C-33.4-7.1-33.7-2.5-38.2,0.4z"/>
		<path d="M-37.4-6.1c-0.2,0.1-0.3,0.2-0.5,0.3c-0.3,0.8-0.8,1.9-1.9,2.9c0,0.1,0,0.3,0,0.4C-38.7-2.9-37.1-4-37.4-6.1z"/>
	</g>
	<g class="st1">
		<path d="M-52.3-12.7c-1,0-2-0.4-2.6-1.2c-0.7-0.8-0.8-1.9-0.3-3c0.7-1.5,2.2-1.8,3.4-1.3c1,0.4,1.5,1.2,1.2,2
			c-0.3,0.8-0.7,1-1,1.1c-0.8,0.2-1.5-0.3-1.6-0.4l0.7-0.9c0.1,0.1,0.4,0.2,0.5,0.2s0.2-0.2,0.2-0.4c0.1-0.2-0.2-0.4-0.6-0.6
			c-0.5-0.2-1.4-0.2-1.8,0.7c-0.4,0.8-0.1,1.4,0.2,1.7c0.4,0.6,1.3,0.9,2.1,0.7c1.3-0.3,2.2-1,3-1.8l0.3-0.3l4.5-4.2l0.8,0.9
			l-4.9,4.5c-0.9,0.8-1.9,1.7-3.6,2.1C-51.9-12.8-52.1-12.7-52.3-12.7z"/>
	</g>
	<g class="st1">
		<path d="M-52.3-4.8l1.4-1c0,0,3.4,3.8,9.3,6.2c0.1-0.3,0.2-0.6,0.2-0.9c0.1-1.3,0.4-3.5-0.8-5.2c-1-1.5-3.3-3.8-7.7-4.4
			c-4.4-0.6-6.6-3.4-6.6-3.4s-0.7,3.8,0,8.9c1.1,7.9,6.6,9.1,9.5,9s4.4-2.2,4.4-2.2s0.1-0.1,0.3-0.3C-48.6-0.7-52.2-4.6-52.3-4.8z"
			/>
		<g>
			<path d="M-38.6,3.1c-1.3-0.3-2.6-0.8-3.7-1.3l0.8-1.5c1.1,0.4,2.3,0.9,3.5,1.2L-38.6,3.1z"/>
		</g>
	</g>
	<g class="st1">
		<path d="M-37-11.8l-0.9-0.4c0,0,0.2-3.1-1-7c-0.1,0-0.3,0.1-0.4,0.2c-0.6,0.4-1.5,1-1.8,2.2c-0.2,1-0.2,3,1.1,5.5s1.1,4.6,1.1,4.6
			s1.8-0.9,3.5-3.1c2.7-3.3,1.2-6.6,0.1-8c-1.1-1.5-2.5-1.5-2.5-1.5s-0.1,0-0.2,0C-36.8-15.1-37-11.9-37-11.8z"/>
		<g>
			<path d="M-38.9-21.7c0.3,0.8,0.6,1.6,0.9,2.4l-0.8,0.1c-0.2-0.7-0.5-1.5-0.8-2.2L-38.9-21.7z"/>
		</g>
	</g>
</g>
<path class="st0" d="M8.4-11.4v-9.1h1.5v9.7C9.4-11,8.9-11.2,8.4-11.4z M9.9-1.1v-1.8c-0.5-0.2-1-0.4-1.5-0.6v6.7h1.5V0.4
	C9.7,0,9.7-0.6,9.9-1.1z M22-2.5c-0.6-0.2-1.1-0.5-1.7-0.7c-3-1.2-6-2.5-9-3.8C10.5-7.3,2-10.9-1-12.1v1.5C2.9-9,12.7-4.9,14.5-4.2
	C16-3.6,17.5-3,19-2.3c0.6,0.3,1.2,0.6,1.9,0.8c0.4,0.2,0.6,0.5,0.8,0.9c0.3,0.8-0.4,1.8-1.4,1.9c-0.6,0.1-1.1-0.2-1.4-0.7
	c-0.1-0.2-0.2-0.3-0.2-0.5c-0.1-0.2,0-0.4,0-0.6c0.1-0.3,0.1-0.3-0.2-0.5s-0.6-0.2-0.9-0.3h-0.1c0,0,0,0-0.1,0.1
	c-0.1,0.3-0.2,0.6-0.2,0.9c-0.1,1,0.4,1.8,1.1,2.4s1.9,0.7,2.8,0.3c0.6-0.2,1.1-0.6,1.5-1.1c0.6-0.9,0.7-1.9,0.2-2.9
	C22.6-1.9,22.6-2.2,22-2.5z M20.7-6.2C20.7-6.2,20.7-6.1,20.7-6.2c-0.3,0.2-0.6,0.1-0.8,0.1c-0.4-0.1-0.7-0.2-1.1-0.4
	c-2.1-0.8-4.2-1.7-6.2-2.6C12-9.3,1.9-13.6-1-14.8v1.5c4,1.7,15.8,6.6,17.6,7.4c0.6,0.2,1.1,0.5,1.7,0.7c0.4,0.1,0.7,0.3,1.1,0.4
	c0.6,0.2,1.1,0.1,1.7-0.1c0.4-0.2,0.9-0.4,1.2-0.7c0.1-0.1,0.4-0.4,0.6-0.8c0.2-0.5,0.3-1,0.3-1.2c0-1-0.4-1.7-1.2-2.3
	c-0.6-0.4-1.2-0.5-1.9-0.5c-0.6,0.1-1.1,0.2-1.6,0.6c-0.3,0.2-0.6,0.5-0.8,0.9l0,0c-0.1,0.2-0.1,0.2,0.1,0.3c0.3,0.1,0.7,0.3,1,0.4
	l0,0c0.1-0.1,0.1-0.1,0.1-0.2c0.1-0.2,0.3-0.3,0.5-0.5c0.5-0.3,1-0.3,1.5,0c0.3,0.2,0.6,0.4,0.7,0.7C21.9-7.4,21.5-6.5,20.7-6.2z
	 M14.5-3c-1.2-0.5-2.3-1-3.5-1.5c-0.7-0.3-9.3-3.9-12-5V-8c3.6,1.5,13.3,5.5,15,6.1c0.3,0.2,0.5,0.3,0.7,0.6
	c0.4,0.6,0.3,1.4-0.4,1.9c-0.1,0.1-0.2,0.1-0.2,0.2C13.8,1,13.4,1,13,0.9c-0.2-0.1-0.4-0.2-0.6-0.2C12.1,0.6,12,0.3,11.9,0
	c-0.1-0.3-0.1-0.6,0-0.9c0-0.1,0-0.1,0-0.2c-0.4-0.2-0.8-0.3-1.2-0.5c0,0,0,0,0,0.1c-0.5,1.2-0.2,2.2,0.7,3.1
	c0.6,0.6,1.5,0.8,2.4,0.7c0.9-0.1,1.6-0.5,2.1-1.2c0.4-0.5,0.5-1.1,0.5-1.7c0-0.8-0.3-1.4-0.9-1.9C15.1-2.7,14.8-2.9,14.5-3z
	 M21.7-20.5H10.4v6.6h11.3V-20.5z"/>
<path class="st0" d="M-207.7-12.3c0-0.2,0-0.1,0.1-0.2l21.2-8.5c0,0,2.9,0,6,0.2c1.1,0.1,1.5,1.1,1.8,2.3c-0.9,0.7-1.2,0.8-1.2,0.9
	L-196.1-7l-1.1-4.4c0-0.1-0.1-0.2-0.3-0.2L-207.7-12.3z M-179.6-16.8l-16.8,11.3l0,0c0,0-0.1,0.1-0.2,0.1l0,0c0,0-3.5-0.5-4.1-0.6
	c-0.7-0.1-0.9-0.4-1-0.4v-0.1c0-0.2-0.7-3.6-0.8-4.1c0-0.1,0-0.2,0-0.3l-4.9-0.4l3.1,4.7l1.3-0.6c0,0,0.2,1.2,0.3,1.6
	c0.4,0.7,0.9,0.9,0.9,0.9l6.2,0.9l4.6-2.7c0,0,0.8,0.1,0.8,0.2s-0.5,0.6-0.5,0.6l-0.1,1.2l-0.5,0.2c0,0,0.2,3.1,0.6,3.7
	c0.4,0.6,2.4,0.5,2.4,0.5l3.7,1c0,0,0,0.6,0.1,1.7c0.2,0.5,3.8,0.9,3.8,0.9V-6c0,0-3.1-0.7-3.5-0.5c-0.4,0.2-0.6,0.6-0.6,0.6v2.7
	l-1.6-1l-0.8-0.5c0,0,0-0.8-0.1-1.1c0-0.3-0.3-0.4-0.4-0.7c-0.2-0.2-0.1-0.6-0.1-0.6l6.5-4.5l0.2-1.7c0,0,1.4-1,1.6-1.3
	s0.1-0.8,0.1-0.8L-179.6-16.8z M-197.2-7.2c-0.2,0.2-0.4,0.4-0.7,0.6c-0.2,0.1-0.5,0.2-0.8,0.2s-0.6-0.1-1-0.2
	c-0.5-0.3-1-0.7-1.3-1.3c-0.3-0.6-0.4-1.2-0.3-1.8c0.1-0.4,0.2-0.7,0.4-0.9l2.7,0.2L-197.2-7.2z M-198-7.2c0-0.2-0.2-0.3-0.4-0.2
	c-0.4,0.1-0.8,0.1-1.1-0.1c-0.7-0.4-0.9-1.5-0.9-1.5c0-0.2-0.2-0.3-0.4-0.2c-0.2,0-0.3,0.2-0.2,0.3c0,0.1,0.3,1.3,1.2,1.9
	c0.3,0.2,0.6,0.3,1,0.3c0.2,0,0.3,0,0.5-0.1C-198-6.9-197.9-7-198-7.2z"/>
<path class="st0" d="M487.9-14.9c-0.4,0-0.8,0-1.1,0.1c-0.4-0.7-0.9-1.4-1.5-2c-0.7,0.6-1.6,0.9-2.5,1c-0.8,0.1-1.6,0-2.2-0.4
	c-0.6-0.4-1.1-1-1.4-1.8c-0.3-0.7-0.5-1.7-0.3-2.6c-1.8-0.4-3.5-0.4-5.2,0c0.2,1,0,1.9-0.3,2.6c-0.3,0.8-0.8,1.4-1.4,1.7
	c-0.7,0.4-1.4,0.5-2.2,0.4s-1.7-0.4-2.4-1c-1.2,1.3-2.1,2.8-2.7,4.5c0.9,0.3,1.6,0.9,2.1,1.6c0.5,0.7,0.8,1.4,0.8,2.1
	c0,0.7-0.3,1.4-0.8,2.1c-0.5,0.7-1.2,1.3-2.1,1.6c0.5,1.7,1.4,3.2,2.6,4.5c0.7-0.6,1.6-0.9,2.5-1c0.8-0.1,1.6,0,2.2,0.4
	c0.6,0.4,1.1,1,1.4,1.8c0.3,0.7,0.5,1.7,0.3,2.6c1.8,0.4,3.5,0.4,5.2,0c-0.2-1,0-1.9,0.3-2.6c0.3-0.8,0.8-1.4,1.4-1.7
	c0.7-0.3,1.4-0.5,2.2-0.3c0.8,0.1,1.7,0.4,2.4,1c0.6-0.6,1.1-1.4,1.6-2.1c0.4,0.1,0.7,0.1,1.1,0.1c3.4,0,6.2-2.8,6.2-6.2
	C494.1-12.1,491.3-14.9,487.9-14.9z M476.2-3.7c-2.7,0-4.9-2.2-4.9-4.9s2.2-4.9,4.9-4.9s4.9,2.2,4.9,4.9
	C481.1-5.9,478.9-3.7,476.2-3.7z M487.9-3c-3.1,0-5.7-2.5-5.7-5.7c0-3.1,2.5-5.7,5.7-5.7s5.7,2.5,5.7,5.7S491-3,487.9-3z M491.3-7.3
	h-2.1v2h-2.6v-2h-2.1v-2.6h2.1v-2h2.6v2h2.1V-7.3z"/>
<g class="st0">
	<rect x="57.7" y="-19.4" class="st2" width="14" height="14"/>
	<g class="st1">
		<g>
			<polyline class="st3" points="80.7,3.1 80.7,3.6 80.2,3.6 			"/>
			<line class="st4" x1="79.3" y1="3.6" x2="58.7" y2="3.6"/>
			<polyline class="st3" points="58.2,3.6 57.7,3.6 57.7,3.1 			"/>
			<line class="st4" x1="57.7" y1="2.1" x2="57.7" y2="-18.4"/>
			<polyline class="st3" points="57.7,-18.9 57.7,-19.4 58.2,-19.4 			"/>
			<line class="st4" x1="59.2" y1="-19.4" x2="79.7" y2="-19.4"/>
			<polyline class="st3" points="80.2,-19.4 80.7,-19.4 80.7,-18.9 			"/>
			<line class="st4" x1="80.7" y1="-18" x2="80.7" y2="2.6"/>
		</g>
	</g>
	<g class="st1">
		<g>
			<line class="st3" x1="58" y1="-19" x2="77.4" y2="0.1"/>
			<g>
				<polygon points="72.2,0.7 72.2,-0.3 77.2,-0.2 76.9,-5.1 77.9,-5.2 78.2,0.8 				"/>
			</g>
		</g>
	</g>
</g>
<g class="st0">
	<rect x="63" y="11.8" class="st2" width="17.3" height="17.3"/>
	<rect x="57.5" y="23.6" class="st5" width="11" height="11"/>
	<rect x="59.2" y="25.2" class="st1" width="7.7" height="7.7"/>
	<g class="st1">
		<g>
			<line class="st3" x1="68.5" y1="23.6" x2="75.8" y2="16.2"/>
			<g>
				<polygon points="76.4,21.5 75.4,21.4 75.5,16.5 70.6,16.7 70.6,15.7 76.6,15.5 				"/>
			</g>
		</g>
	</g>
</g>
<g class="st0">
	<circle class="st1" cx="64" cy="88.9" r="7.6"/>
	<circle class="st6" cx="68.4" cy="84.6" r="6.5"/>
	<circle class="st7" cx="71.7" cy="81.2" r="5.6"/>
	<circle class="st8" cx="74.6" cy="78.3" r="4.5"/>
	<g class="st1">
		<g>
			<g>
				<polygon class="st3" points="62.5,119.1 69.2,116.4 76,119.1 69.2,123.6 				"/>
			</g>
		</g>
		<polygon points="69.2,131.1 62.9,126.3 61.4,119 69.2,123.9 		"/>
		<polygon points="69.2,131.1 75.5,126.3 77.1,119 69.2,123.9 		"/>
		<line class="st9" x1="69.2" y1="131.1" x2="69.2" y2="122.1"/>
		<path class="st9" d="M69.2,123.9"/>
		<line class="st3" x1="69.2" y1="116.4" x2="69.2" y2="114.4"/>
		<line class="st3" x1="63.6" y1="125.7" x2="61.4" y2="127.4"/>
		<g>
			<g>
				<g>
					<polyline class="st3" points="69.5,140.6 69.2,141 69,140.6 					"/>
					<polyline class="st10" points="68.5,139.7 61.5,127.7 54.4,115.2 					"/>
					<polyline class="st3" points="54.1,114.8 53.8,114.4 54.3,114.4 					"/>
					<polyline class="st10" points="55.4,114.4 69.2,114.4 83.6,114.4 					"/>
					<polyline class="st3" points="84.1,114.4 84.6,114.4 84.4,114.8 					"/>
					<polyline class="st10" points="83.8,115.7 76.9,127.7 69.7,140.1 					"/>
				</g>
			</g>
			<g>
				<g>
					<line class="st3" x1="53.8" y1="114.4" x2="54.3" y2="114.6"/>
					<line class="st11" x1="55.1" y1="115.1" x2="61" y2="118.8"/>
					<line class="st3" x1="61.4" y1="119" x2="61.8" y2="119.3"/>
				</g>
			</g>
			<g>
				<g>
					<line class="st3" x1="84.6" y1="114.4" x2="84.2" y2="114.6"/>
					<line class="st11" x1="83.4" y1="115.1" x2="77.4" y2="118.8"/>
					<line class="st3" x1="77" y1="119" x2="76.6" y2="119.3"/>
				</g>
			</g>
			<g>
				<g>
					<line class="st3" x1="69.2" y1="141" x2="69.2" y2="140.5"/>
					<line class="st12" x1="69.2" y1="139.4" x2="69.2" y2="133.1"/>
					<line class="st3" x1="69.2" y1="132.6" x2="69.2" y2="132.1"/>
				</g>
			</g>
		</g>
		<line class="st3" x1="74.8" y1="125.7" x2="77.1" y2="127.4"/>
		<line class="st3" x1="77.9" y1="125.9" x2="76.4" y2="128.6"/>
		<line class="st3" x1="60.5" y1="125.9" x2="62" y2="128.6"/>
		<line class="st3" x1="70.7" y1="114.4" x2="67.7" y2="114.4"/>
	</g>
	<g class="st1">
		<polygon class="st3" points="60.5,158.1 75.9,151.5 75.9,159.4 60.5,176.1 60.5,158.3 		"/>
	</g>
	<polygon class="st1" points="76.9,160 85.1,160 81.6,177.3 61.4,177.3 	"/>
	<line class="st13" x1="64.4" y1="156.6" x2="64.4" y2="171.9"/>
	<line class="st13" x1="67.5" y1="155.5" x2="67.5" y2="169"/>
	<line class="st13" x1="70" y1="154" x2="70" y2="165.8"/>
	<line class="st13" x1="72.3" y1="153.2" x2="72.3" y2="163.1"/>
	<line class="st13" x1="74.3" y1="152.2" x2="74.3" y2="160.8"/>
	<line class="st13" x1="60.5" y1="165.9" x2="75.9" y2="155.3"/>
	<rect x="77.6" y="151.1" class="st1" width="7.6" height="7.7"/>
</g>
<path d="M32.6,18.3v12.4h-3.7V18.3H32.6z M7.9,6.9V0H4.1v6.9H7.9z M32.6,9.9V0h-3.7v9.9H32.6z M20.3,19.2V0h-3.7v19.2H20.3z
	 M4.1,15.3v15.4h3.7V15.3H4.1z M16.5,27.5v3.1h3.7v-3.1H16.5z M12,11.7v-1.1c0-0.9-0.7-1.6-1.6-1.6H1.6C0.7,8.9,0,9.7,0,10.5l0,1.1
	c0,0.9,0.7,1.6,1.6,1.6h8.8C11.3,13.3,12,12.6,12,11.7z M36.8,14.7v-1.1c0-0.9-0.7-1.6-1.6-1.6h-8.8c-0.9,0-1.6,0.7-1.6,1.6v1.1
	c0,0.9,0.7,1.6,1.6,1.6h8.8C36.1,16.3,36.8,15.6,36.8,14.7z M24.4,23.9v-1.1c0-0.9-0.7-1.6-1.6-1.6H14c-0.9,0-1.6,0.7-1.6,1.6v1.1
	c0,0.9,0.7,1.6,1.6,1.6h8.8C23.7,25.5,24.4,24.8,24.4,23.9z"/>
</svg>
