<?xml version="1.0" encoding="utf-8"?>
<!-- Generator: Adobe Illustrator 26.0.3, SVG Export Plug-In . SVG Version: 6.00 Build 0)  -->
<svg version="1.1" id="Layer_1" xmlns="http://www.w3.org/2000/svg" xmlns:xlink="http://www.w3.org/1999/xlink" x="0px" y="0px"
	 viewBox="0 0 31.43 48.19" style="enable-background:new 0 0 31.43 48.19;" xml:space="preserve">
<style type="text/css">
	.st0{display:none;}
	.st1{display:inline;}
	.st2{display:inline;fill:none;stroke:#000000;stroke-miterlimit:10;}
	.st3{fill:none;stroke:#000000;stroke-miterlimit:10;}
	.st4{fill:none;stroke:#000000;stroke-miterlimit:10;stroke-dasharray:0.9556,0.9556;}
	.st5{display:inline;fill:#383838;}
	.st6{display:inline;opacity:0.75;}
	.st7{display:inline;opacity:0.5;}
	.st8{display:inline;opacity:0.25;}
	.st9{fill:none;stroke:#383838;stroke-width:0.5;stroke-miterlimit:10;}
	.st10{fill:none;stroke:#000000;stroke-miterlimit:10;stroke-dasharray:1.0262,1.0262;}
	.st11{fill:none;stroke:#000000;stroke-miterlimit:10;stroke-dasharray:0.9318,0.9318;}
	.st12{fill:none;stroke:#000000;stroke-miterlimit:10;stroke-dasharray:1.1337,1.1337;}
	.st13{display:inline;fill:none;stroke:#000000;stroke-width:0.5;stroke-miterlimit:10;}
</style>
<g class="st0">
	<path class="st1" d="M535.44,20.21l-14.09,0c-0.56,0-1.02-0.46-1.02-1.02v-0.29c0-0.56,0.46-1.02,1.02-1.02l14.09,0
		c0.56,0,1.02,0.46,1.02,1.02v0.29C536.46,19.75,536,20.21,535.44,20.21z"/>
	<path class="st1" d="M535.44,26.77l-14.09,0c-0.56,0-1.02-0.46-1.02-1.02v-0.29c0-0.56,0.46-1.02,1.02-1.02l14.09,0
		c0.56,0,1.02,0.46,1.02,1.02v0.29C536.46,26.31,536,26.77,535.44,26.77z"/>
	<path class="st1" d="M535.44,33.34l-14.09,0c-0.56,0-1.02-0.46-1.02-1.02v-0.29c0-0.56,0.46-1.02,1.02-1.02l14.09,0
		c0.56,0,1.02,0.46,1.02,1.02v0.29C536.46,32.88,536,33.34,535.44,33.34z"/>
	<circle class="st1" cx="515.6" cy="19.04" r="1.65"/>
	<circle class="st1" cx="515.6" cy="25.6" r="1.65"/>
	<circle class="st1" cx="515.6" cy="32.17" r="1.65"/>
</g>
<g class="st0">
	<g class="st1">
		<path d="M117.01,18.84l-4.79,4.33c0.45,0.14,0.88,0.29,1.28,0.46l3.67-3.32C117.07,19.77,117.02,19.27,117.01,18.84z"/>
		<path d="M117.49,21.58l-2.85,2.58c0.39,0.21,0.73,0.43,1.06,0.66l2.26-2.04C117.77,22.37,117.61,21.96,117.49,21.58z"/>
		<path d="M117.7,15.88l-0.41-0.45l-7.85,7.1c0.11,0.02,0.21,0.05,0.33,0.07c0.4,0.06,0.76,0.15,1.13,0.23l6.27-5.67
			C117.29,16.66,117.48,16.24,117.7,15.88z"/>
		<path d="M118.51,23.92l-1.83,1.66c0.33,0.28,0.63,0.56,0.87,0.82l1.46-1.32C118.89,24.72,118.72,24.32,118.51,23.92z"/>
		<path d="M119.34,27.46c0.01-0.05,0.04-0.47-0.04-1.09l-1.01,0.92c0.1,0.13,0.2,0.26,0.27,0.37c0.14,0.22,0.26,0.44,0.37,0.67
			l0.34-0.31L119.34,27.46z"/>
		<path d="M124.13,26.32c-0.03,0.03-0.06,0.06-0.09,0.09c-0.09,1.08-0.65,4.75-4.32,7.35C119.72,33.76,126.15,32.18,124.13,26.32z"
			/>
		<path d="M121.28,34.67c0,0,6.7-1.35,4.75-7.48C126.04,27.19,125.79,31.78,121.28,34.67z"/>
		<path d="M122.08,28.14c-0.18,0.13-0.34,0.24-0.48,0.34c-0.27,0.83-0.82,1.94-1.91,2.93c0.01,0.13,0.02,0.26,0.02,0.39
			C120.78,31.34,122.34,30.29,122.08,28.14z"/>
	</g>
	<g class="st1">
		<path d="M107.12,21.51c-0.99,0-1.98-0.44-2.58-1.19c-0.67-0.83-0.78-1.91-0.31-2.97c0.66-1.49,2.19-1.81,3.36-1.34
			c1.01,0.4,1.53,1.24,1.25,2.05c-0.26,0.76-0.71,1.04-1.04,1.14c-0.78,0.24-1.52-0.3-1.6-0.36l0.73-0.95
			c0.13,0.1,0.39,0.22,0.53,0.17c0.09-0.03,0.18-0.16,0.25-0.38c0.05-0.16-0.2-0.41-0.55-0.55c-0.48-0.19-1.41-0.25-1.83,0.71
			c-0.36,0.83-0.12,1.4,0.15,1.74c0.45,0.57,1.29,0.85,2.05,0.71c1.34-0.27,2.15-1,3.02-1.78l0.35-0.31l4.51-4.21l0.82,0.88
			l-4.88,4.53c-0.91,0.81-1.93,1.74-3.59,2.06C107.54,21.49,107.33,21.51,107.12,21.51z"/>
	</g>
	<g class="st1">
		<path d="M107.12,29.43l1.42-0.99c0.04,0.04,3.44,3.79,9.34,6.23c0.09-0.28,0.16-0.59,0.2-0.93c0.13-1.26,0.36-3.51-0.79-5.24
			c-1.01-1.52-3.35-3.78-7.72-4.38c-4.37-0.61-6.59-3.41-6.59-3.41s-0.71,3.81,0,8.89c1.11,7.88,6.58,9.13,9.5,9.01
			c2.92-0.12,4.38-2.19,4.38-2.19s0.11-0.1,0.26-0.29C110.84,33.54,107.29,29.62,107.12,29.43z"/>
		<g>
			<path d="M120.85,37.39c-1.31-0.34-2.6-0.8-3.73-1.26l0.76-1.46c1.06,0.44,2.27,0.87,3.49,1.19L120.85,37.39z"/>
		</g>
	</g>
	<g class="st1">
		<path d="M122.43,22.47l-0.91-0.4c0-0.04,0.22-3.1-0.99-7c-0.14,0.05-0.29,0.12-0.44,0.22c-0.55,0.37-1.51,1.03-1.77,2.23
			c-0.23,1.05-0.25,3.05,1.12,5.52s1.09,4.6,1.09,4.6s1.76-0.95,3.5-3.08c2.69-3.31,1.17-6.58,0.05-8.05
			c-1.13-1.47-2.48-1.51-2.48-1.51s-0.08-0.02-0.21-0.04C122.68,19.12,122.44,22.31,122.43,22.47z"/>
		<g>
			<path d="M120.5,12.59c0.35,0.8,0.64,1.62,0.88,2.37l-0.85,0.11c-0.22-0.7-0.5-1.48-0.82-2.22L120.5,12.59z"/>
		</g>
	</g>
</g>
<path class="st0" d="M167.81,22.82l0-9.07l1.51,0l0,9.71C168.84,23.26,168.34,23.04,167.81,22.82z M169.32,33.12v-1.75
	c-0.48-0.2-0.99-0.41-1.51-0.62v6.71h1.51v-2.77C169.19,34.2,169.18,33.67,169.32,33.12z M181.42,31.75
	c-0.55-0.23-1.11-0.46-1.66-0.69c-3.01-1.25-6.03-2.5-9.04-3.75c-0.82-0.34-9.32-3.89-12.27-5.12v1.45
	c3.88,1.6,13.67,5.68,15.49,6.44c1.5,0.62,3.01,1.24,4.51,1.87c0.63,0.26,1.24,0.55,1.87,0.81c0.41,0.17,0.64,0.47,0.76,0.86
	c0.26,0.82-0.39,1.82-1.37,1.91c-0.63,0.06-1.11-0.19-1.45-0.68c-0.1-0.15-0.17-0.32-0.22-0.49c-0.05-0.19-0.03-0.38,0.02-0.57
	c0.08-0.28,0.05-0.34-0.23-0.46c-0.28-0.12-0.57-0.24-0.85-0.35c-0.03-0.01-0.06-0.02-0.09-0.03c-0.02,0.03-0.04,0.05-0.05,0.08
	c-0.15,0.28-0.21,0.59-0.22,0.9c-0.06,1.01,0.35,1.81,1.15,2.43c0.72,0.56,1.91,0.68,2.79,0.34c0.62-0.24,1.14-0.59,1.5-1.13
	c0.62-0.93,0.66-1.89,0.16-2.86C182.05,32.35,182,32.05,181.42,31.75z M180.19,28.08c-0.02,0.01-0.05,0.02-0.07,0.03
	c-0.25,0.12-0.5,0.11-0.75,0.03c-0.37-0.13-0.74-0.25-1.1-0.39c-2.08-0.85-4.16-1.71-6.24-2.56c-0.55-0.23-10.72-4.54-13.58-5.74
	v1.52c4.04,1.69,15.76,6.64,17.61,7.4c0.56,0.23,1.12,0.46,1.69,0.68c0.37,0.14,0.74,0.27,1.11,0.39c0.55,0.18,1.11,0.14,1.66-0.05
	c0.45-0.16,0.86-0.39,1.21-0.7c0.14-0.12,0.44-0.43,0.62-0.79c0.22-0.47,0.27-0.97,0.26-1.2c-0.02-0.96-0.43-1.74-1.24-2.3
	c-0.57-0.39-1.23-0.53-1.93-0.47c-0.59,0.05-1.14,0.24-1.61,0.6c-0.32,0.24-0.56,0.54-0.78,0.86c-0.01,0.01-0.02,0.03-0.03,0.05
	c-0.09,0.17-0.1,0.19,0.08,0.27c0.34,0.15,0.69,0.28,1.03,0.42c0.01,0,0.02,0,0.04,0.01c0.05-0.06,0.1-0.12,0.15-0.18
	c0.15-0.18,0.31-0.34,0.52-0.46c0.51-0.29,1.01-0.29,1.52-0.05c0.32,0.16,0.57,0.38,0.71,0.71
	C181.39,26.88,180.99,27.76,180.19,28.08z M173.94,31.24c-1.16-0.49-2.32-0.99-3.48-1.47c-0.66-0.28-9.32-3.89-12.02-5v1.52
	c3.64,1.5,13.29,5.45,14.96,6.14c0.32,0.17,0.46,0.3,0.66,0.63c0.41,0.63,0.26,1.41-0.37,1.89c-0.08,0.06-0.16,0.11-0.24,0.16
	c-0.34,0.2-0.7,0.25-1.07,0.14c-0.2-0.06-0.4-0.15-0.59-0.24c-0.28-0.15-0.44-0.4-0.53-0.69c-0.1-0.3-0.11-0.6-0.03-0.91
	c0.01-0.05,0.02-0.1,0.03-0.15c-0.42-0.17-0.83-0.34-1.25-0.51c-0.01,0.02-0.03,0.03-0.03,0.05c-0.46,1.19-0.21,2.24,0.7,3.11
	c0.65,0.62,1.49,0.83,2.41,0.7c0.88-0.12,1.58-0.54,2.09-1.24c0.38-0.51,0.53-1.08,0.51-1.7c-0.02-0.75-0.32-1.39-0.88-1.91
	C174.58,31.53,174.26,31.37,173.94,31.24z M181.19,13.75l-11.26,0v6.61l11.26,0V13.75z"/>
<path class="st0" d="M-48.26,21.92c-0.04-0.17-0.01-0.06,0.14-0.25l21.16-8.51c0,0,2.92-0.03,6,0.2c1.08,0.06,1.51,1.07,1.79,2.34
	c-0.89,0.66-1.16,0.85-1.23,0.9l-16.29,10.64l-1.13-4.43c-0.03-0.12-0.14-0.21-0.26-0.22L-48.26,21.92z M-20.12,17.47l-16.75,11.31
	c0,0,0,0-0.01,0c-0.05,0.03-0.1,0.05-0.16,0.05c-0.02,0-0.03,0-0.05,0c-0.03-0.01-3.54-0.54-4.13-0.6
	c-0.71-0.07-0.92-0.36-0.96-0.45c-0.01-0.03-0.02-0.05-0.03-0.08c-0.03-0.15-0.71-3.57-0.78-4.13c-0.01-0.11,0-0.2,0.01-0.29
	l-4.88-0.42l3.05,4.72l1.28-0.64c0,0,0.16,1.21,0.34,1.59c0.37,0.74,0.94,0.87,0.94,0.87l6.25,0.9l4.61-2.72
	c0,0,0.81,0.06,0.83,0.17s-0.53,0.64-0.53,0.64l-0.08,1.24l-0.5,0.17c0,0,0.18,3.07,0.58,3.65c0.4,0.58,2.44,0.49,2.44,0.49
	l3.74,1.04c0,0,0.03,0.58,0.1,1.65c0.23,0.49,3.8,0.95,3.8,0.95l0-9.46c0,0-3.05-0.69-3.45-0.49c-0.4,0.2-0.6,0.58-0.6,0.58
	l-0.05,2.69l-1.57-1.01l-0.76-0.46c0,0,0-0.75-0.05-1.1c-0.05-0.35-0.28-0.43-0.43-0.67c-0.15-0.23-0.13-0.64-0.13-0.64l6.53-4.49
	l0.15-1.74c0,0,1.39-1.01,1.56-1.27c0.18-0.26,0.08-0.84,0.08-0.84L-20.12,17.47z M-37.74,27.02c-0.18,0.24-0.4,0.44-0.67,0.57
	c-0.25,0.12-0.52,0.18-0.8,0.18c-0.31,0-0.64-0.08-0.95-0.23c-0.54-0.27-1-0.74-1.29-1.34c-0.29-0.59-0.39-1.25-0.27-1.84
	c0.07-0.36,0.23-0.67,0.44-0.93l2.69,0.24L-37.74,27.02z M-38.53,27.04c-0.04-0.16-0.2-0.26-0.36-0.22
	c-0.41,0.1-0.75,0.05-1.05-0.14c-0.68-0.43-0.9-1.46-0.9-1.47c-0.03-0.16-0.19-0.26-0.35-0.23c-0.16,0.03-0.26,0.19-0.23,0.35
	c0.01,0.05,0.27,1.29,1.16,1.86c0.29,0.19,0.62,0.28,0.97,0.28c0.17,0,0.35-0.02,0.54-0.07C-38.59,27.36-38.5,27.2-38.53,27.04z"/>
<path class="st0" d="M647.34,19.36c-0.38,0-0.75,0.04-1.11,0.1c-0.42-0.73-0.91-1.41-1.48-2.04c-0.71,0.63-1.62,0.92-2.45,1.02
	c-0.82,0.08-1.59,0-2.21-0.39c-0.64-0.37-1.1-0.97-1.42-1.75c-0.33-0.74-0.52-1.69-0.31-2.63c-1.77-0.4-3.54-0.39-5.23-0.03
	c0.2,0.95-0.01,1.87-0.34,2.63c-0.34,0.78-0.81,1.36-1.44,1.74c-0.65,0.35-1.39,0.46-2.23,0.35c-0.83-0.12-1.71-0.4-2.43-1.05
	c-1.16,1.26-2.09,2.77-2.65,4.51c0.91,0.3,1.64,0.95,2.12,1.61c0.5,0.68,0.79,1.38,0.77,2.11c0.02,0.73-0.31,1.43-0.79,2.1
	c-0.51,0.66-1.22,1.3-2.13,1.59c0.53,1.68,1.41,3.23,2.59,4.55c0.71-0.63,1.62-0.92,2.45-1.02c0.82-0.08,1.59,0,2.21,0.39
	c0.64,0.37,1.1,0.97,1.42,1.75c0.33,0.74,0.52,1.69,0.31,2.63c1.77,0.4,3.54,0.39,5.23,0.03c-0.2-0.95,0.01-1.87,0.34-2.63
	c0.33-0.78,0.81-1.36,1.44-1.74c0.65-0.35,1.39-0.46,2.23-0.35c0.83,0.12,1.71,0.4,2.43,1.05c0.6-0.65,1.13-1.37,1.59-2.15
	c0.36,0.06,0.72,0.1,1.1,0.1c3.44,0,6.24-2.8,6.24-6.25S650.79,19.36,647.34,19.36z M635.67,30.51c-2.71,0-4.91-2.2-4.91-4.91
	c0-2.71,2.2-4.91,4.91-4.91c2.71,0,4.91,2.2,4.91,4.91C640.58,28.32,638.38,30.51,635.67,30.51z M647.34,31.28
	c-3.13,0-5.67-2.54-5.67-5.67s2.54-5.67,5.67-5.67c3.13,0,5.67,2.54,5.67,5.67S650.48,31.28,647.34,31.28z M650.72,26.92h-2.06v2.01
	l-2.63,0v-2.01h-2.06v-2.63h2.06v-2.01h2.63v2.01l2.06,0V26.92z"/>
<g class="st0">
	<rect x="217.18" y="14.83" class="st2" width="14.01" height="14.01"/>
	<g class="st1">
		<g>
			<polyline class="st3" points="240.16,37.31 240.16,37.81 239.66,37.81 			"/>
			<line class="st4" x1="238.7" y1="37.81" x2="218.16" y2="37.81"/>
			<polyline class="st3" points="217.68,37.81 217.18,37.81 217.18,37.31 			"/>
			<line class="st4" x1="217.18" y1="36.36" x2="217.18" y2="15.81"/>
			<polyline class="st3" points="217.18,15.33 217.18,14.83 217.68,14.83 			"/>
			<line class="st4" x1="218.64" y1="14.83" x2="239.18" y2="14.83"/>
			<polyline class="st3" points="239.66,14.83 240.16,14.83 240.16,15.33 			"/>
			<line class="st4" x1="240.16" y1="16.29" x2="240.16" y2="36.83"/>
		</g>
	</g>
	<g class="st1">
		<g>
			<line class="st3" x1="217.46" y1="15.28" x2="236.89" y2="34.33"/>
			<g>
				<polygon points="231.67,34.93 231.69,33.93 236.62,34.06 236.39,29.13 237.39,29.09 237.67,35.09 				"/>
			</g>
		</g>
	</g>
</g>
<g class="st0">
	<rect x="222.44" y="46.03" class="st2" width="17.27" height="17.27"/>
	<rect x="216.96" y="57.82" class="st5" width="10.96" height="10.96"/>
	<rect x="218.61" y="59.48" class="st1" width="7.66" height="7.66"/>
	<g class="st1">
		<g>
			<line class="st3" x1="227.92" y1="57.82" x2="235.26" y2="50.48"/>
			<g>
				<polygon points="235.81,55.72 234.81,55.68 234.99,50.75 230.06,50.93 230.03,49.93 236.03,49.72 				"/>
			</g>
		</g>
	</g>
</g>
<g class="st0">
	<circle class="st1" cx="223.43" cy="123.15" r="7.65"/>
	<circle class="st6" cx="227.8" cy="118.8" r="6.53"/>
	<circle class="st7" cx="231.19" cy="115.42" r="5.57"/>
	<circle class="st8" cx="234.09" cy="112.51" r="4.47"/>
	<g class="st1">
		<g>
			<g>
				<polygon class="st3" points="221.9,153.38 228.67,150.61 235.44,153.38 228.67,157.8 				"/>
			</g>
		</g>
		<polygon points="228.67,165.38 222.35,160.52 220.83,153.27 228.67,158.16 		"/>
		<polygon points="228.67,165.38 234.99,160.52 236.5,153.27 228.67,158.16 		"/>
		<line class="st9" x1="228.67" y1="165.38" x2="228.67" y2="156.35"/>
		<path class="st9" d="M228.67,158.16"/>
		<line class="st3" x1="228.67" y1="150.61" x2="228.67" y2="148.61"/>
		<line class="st3" x1="223.06" y1="159.98" x2="220.83" y2="161.68"/>
		<g>
			<g>
				<g>
					<polyline class="st3" points="228.92,174.81 228.67,175.25 228.42,174.81 					"/>
					<polyline class="st10" points="227.91,173.93 220.98,161.93 213.8,149.49 					"/>
					<polyline class="st3" points="213.54,149.04 213.29,148.61 213.79,148.61 					"/>
					<polyline class="st10" points="214.82,148.61 228.67,148.61 243.04,148.61 					"/>
					<polyline class="st3" points="243.55,148.61 244.05,148.61 243.8,149.04 					"/>
					<polyline class="st10" points="243.29,149.93 236.36,161.93 229.18,174.37 					"/>
				</g>
			</g>
			<g>
				<g>
					<line class="st3" x1="213.29" y1="148.61" x2="213.71" y2="148.87"/>
					<line class="st11" x1="214.51" y1="149.36" x2="220.45" y2="153.04"/>
					<line class="st3" x1="220.85" y1="153.28" x2="221.27" y2="153.55"/>
				</g>
			</g>
			<g>
				<g>
					<line class="st3" x1="244.05" y1="148.61" x2="243.62" y2="148.87"/>
					<line class="st11" x1="242.83" y1="149.36" x2="236.89" y2="153.04"/>
					<line class="st3" x1="236.49" y1="153.28" x2="236.07" y2="153.55"/>
				</g>
			</g>
			<g>
				<g>
					<line class="st3" x1="228.67" y1="175.25" x2="228.67" y2="174.75"/>
					<line class="st12" x1="228.67" y1="173.61" x2="228.67" y2="167.38"/>
					<line class="st3" x1="228.67" y1="166.81" x2="228.67" y2="166.31"/>
				</g>
			</g>
		</g>
		<line class="st3" x1="234.28" y1="159.98" x2="236.5" y2="161.68"/>
		<line class="st3" x1="237.37" y1="160.19" x2="235.85" y2="162.82"/>
		<line class="st3" x1="219.97" y1="160.19" x2="221.49" y2="162.82"/>
		<line class="st3" x1="230.19" y1="148.61" x2="227.15" y2="148.6"/>
	</g>
	<g class="st1">
		<polygon class="st3" points="219.97,192.33 235.39,185.76 235.39,193.65 219.97,210.36 219.97,192.55 		"/>
	</g>
	<polygon class="st1" points="236.39,194.2 244.58,194.2 241.05,211.54 220.83,211.54 	"/>
	<line class="st13" x1="223.8" y1="190.83" x2="223.8" y2="206.17"/>
	<line class="st13" x1="226.91" y1="189.74" x2="226.91" y2="203.22"/>
	<line class="st13" x1="229.45" y1="188.26" x2="229.45" y2="200.09"/>
	<line class="st13" x1="231.79" y1="187.49" x2="231.79" y2="197.39"/>
	<line class="st13" x1="233.7" y1="186.48" x2="233.7" y2="195.08"/>
	<line class="st13" x1="219.97" y1="200.13" x2="235.39" y2="189.57"/>
	<rect x="237.04" y="185.31" class="st1" width="7.55" height="7.73"/>
</g>
<g>
	<g>
		<path d="M19.66,34.75c-2.03-1.47-3.99-2.88-6.08-4.39c-0.38,1.8-0.8,3.44-1.06,5.11c-0.21,1.35-0.76,2.44-1.65,3.48
			c-2.31,2.69-4.53,5.46-6.78,8.2c-0.5,0.61-1.07,1.05-1.92,1.03c-1.67-0.03-2.71-1.79-1.88-3.24c0.24-0.41,0.56-0.78,0.86-1.14
			c2.08-2.53,4.15-5.05,6.24-7.56c0.44-0.53,0.71-1.09,0.85-1.79c1.13-5.61,2.3-11.21,3.46-16.81c0.06-0.3,0.07-0.62,0.11-1.09
			c-0.84,0.32-1.56,0.59-2.3,0.86c-0.7,1.77-1.38,3.5-2.07,5.24c-0.12,0.3-0.22,0.6-0.38,0.87c-0.57,0.99-1.73,1.36-2.79,0.92
			c-1.03-0.43-1.63-1.58-1.21-2.65C4,19.39,4.99,17,6.04,14.64c0.2-0.45,0.75-0.85,1.22-1.04c2.72-1.12,5.45-2.22,8.2-3.25
			c2.18-0.81,4.47,0.21,5.45,2.38c1.08,2.39,2.11,4.8,3.2,7.32c1.47,0.49,3.01,1.01,4.55,1.52c0.45,0.15,0.91,0.28,1.35,0.47
			c1.11,0.47,1.67,1.68,1.29,2.74c-0.4,1.11-1.53,1.78-2.67,1.44c-1.68-0.49-3.33-1.07-4.99-1.61c-0.19-0.06-0.37-0.14-0.57-0.18
			c-1.67-0.33-2.79-1.26-3.24-2.95c-0.09-0.33-0.3-0.63-0.56-1.15c-0.53,2.62-1.01,5-1.52,7.5c1.21,0.9,2.45,1.82,3.7,2.74
			c0.42,0.31,0.82,0.64,1.27,0.9c1.04,0.62,1.41,1.52,1.39,2.71c-0.04,3.35-0.01,6.7-0.01,10.05c0,0.52,0.02,1.04-0.01,1.56
			c-0.07,1.54-0.89,2.37-2.24,2.4c-1.13,0.03-2.25-1.11-2.22-2.46c0.07-3.31,0.02-6.62,0.02-9.93
			C19.66,35.48,19.66,35.17,19.66,34.75z"/>
		<path d="M14.1,4.48C13.98,1.82,16.35-0.05,18.53,0c2.49,0.06,4.49,2.02,4.47,4.49c-0.02,2.42-2,4.39-4.42,4.4
			C16.03,8.91,14.11,7.02,14.1,4.48z"/>
	</g>
</g>
</svg>
