<?xml version="1.0" encoding="UTF-8" standalone="no"?>
<!-- Created with Inkscape (http://www.inkscape.org/) -->

<svg
   width="256"
   height="256"
   viewBox="0 0 67.733329 67.733333"
   version="1.1"
   id="svg1"
   inkscape:version="1.4 (e7c3feb1, 2024-10-09)"
   sodipodi:docname="mask.svg"
   xmlns:inkscape="http://www.inkscape.org/namespaces/inkscape"
   xmlns:sodipodi="http://sodipodi.sourceforge.net/DTD/sodipodi-0.dtd"
   xmlns="http://www.w3.org/2000/svg"
   xmlns:svg="http://www.w3.org/2000/svg">
  <defs
     id="defs1" />
  <g
     inkscape:label="Layer 1"
     inkscape:groupmode="layer"
     id="layer1">
    <g
       id="Medium-M"
       transform="matrix(0.50148744,0,0,0.43191516,-0.75130969,48.714908)"
      >
      <path
         class="SFSymbolsPreviewWireframe"
         d="m 70.081,-8.20861 c 14.9127,0 26.9811,-12.05989 26.9811,-26.98109 0,-14.9127 -12.0684,-26.9812 -26.9811,-26.9812 -14.8778,0 -26.9377,12.0685 -26.9377,26.9812 0,14.9212 12.0599,26.98109 26.9377,26.98109 z m 0,-6.98349 c -11.1126,0 -19.9542,-8.8851 -19.9542,-19.9976 0,-11.1126 8.8416,-19.9977 19.9542,-19.9977 11.1474,0 19.9976,8.8851 19.9976,19.9977 0,11.1125 -8.8502,19.9976 -19.9976,19.9976 z M 18.4653,-32.6644 62.625,-76.8242 H 50.8469 L 18.4653,-44.4426 Z M 68.4885,-58.0439 H 80.2563 L 99.1811,-76.9686 87.7495,-77.3049 Z M 18.6037,3.55502 46.2568,-24.0444 v -11.733 L 18.3539,-7.90927 Z M 92.9593,-33.3898 121.304,-61.7341 120.967,-73.0669 92.9593,-45.0068 Z M 54.3015,5.22454 71.8917,-12.3656 H 60.2209 L 42.8785,4.92309 Z M 79.4261,4.78721 H 91.2476 L 121.106,-25.1144 V -36.8925 Z M 28.47,10.3692 h 83.583 c 10.567,0 16.009,-5.4593 16.009,-15.87882 V -64.9043 c 0,-10.4195 -5.442,-15.8787 -16.009,-15.8787 H 28.47 c -10.5236,0 -16.0091,5.442 -16.0091,15.8787 v 59.39468 c 0,10.43672 5.4855,15.87882 16.0091,15.87882 z m 0.5768,-9.60414 c -4.537,0 -7.0252,-2.36027 -7.0252,-7.06862 V -64.1103 c 0,-4.7518 2.4882,-7.0686 7.0252,-7.0686 h 82.4292 c 4.503,0 7.025,2.3168 7.025,7.0686 v 57.80674 c 0,4.70835 -2.522,7.06862 -7.025,7.06862 z"
         id="path44"
         style="opacity:1;fill:currentColor;fill-opacity:1;stroke:currentColor;stroke-width:0.5" />
    </g>
  </g>
</svg>
